<svg width="41" height="42" viewBox="0 0 41 42" fill="none" xmlns="http://www.w3.org/2000/svg">
<path fill-rule="evenodd" clip-rule="evenodd" d="M20.7112 26.6571C17.6518 26.6571 15.1619 24.1631 15.1619 21.0918C15.1619 18.0226 17.6518 15.5285 20.7112 15.5285C23.7676 15.5285 26.2551 18.0226 26.2551 21.0918C26.2551 24.1631 23.7676 26.6571 20.7112 26.6571ZM20.7112 16.9706C18.4429 16.9706 16.6001 18.82 16.6001 21.0918C16.6001 23.3636 18.4429 25.2147 20.7112 25.2147C22.9741 25.2147 24.8169 23.3636 24.8169 21.0918C24.8169 18.82 22.9741 16.9706 20.7112 16.9706ZM18.294 41.1888C17.9652 41.1888 17.6782 40.9627 17.5971 40.6436L16.3599 35.6809C15.3967 35.3825 14.4467 34.9767 13.5278 34.4756L9.127 37.1254C8.84518 37.2953 8.48247 37.2485 8.25001 37.0188L4.8307 33.5882C4.59833 33.3558 4.55399 32.9932 4.72363 32.7094L7.3652 28.302C6.87457 27.39 6.48035 26.4411 6.18812 25.4637L1.21285 24.2167C0.894521 24.137 0.66748 23.8463 0.66748 23.5187V18.6747C0.66748 18.3423 0.894521 18.0534 1.21285 17.9753L6.15935 16.7368C6.46212 15.7606 6.86666 14.8075 7.36258 13.8923L4.72109 9.47749C4.55146 9.19303 4.59592 8.82897 4.82807 8.59573L8.24223 5.17279C8.47718 4.93748 8.83993 4.88895 9.12193 5.06508L13.5227 7.71128C14.4284 7.22464 15.3759 6.82565 16.3494 6.5338L17.5919 1.54389C17.6728 1.22304 17.9599 0.997192 18.2889 0.997192H23.1204C23.4491 0.997192 23.7389 1.22304 23.8173 1.54389L25.0545 6.51044C26.0255 6.81351 26.9756 7.21787 27.8839 7.70772L32.2899 5.0565C32.5666 4.89458 32.9321 4.93748 33.1671 5.16747L36.5811 8.59067C36.816 8.82391 36.8604 9.18682 36.6907 9.47304L34.0492 13.8923C34.5347 14.798 34.9288 15.7476 35.2212 16.7184L40.2015 17.9702C40.5225 18.0484 40.747 18.339 40.747 18.6694V23.5095C40.747 23.839 40.5225 24.1302 40.2015 24.2075L35.2212 25.4586C34.9288 26.439 34.5347 27.388 34.0518 28.2878L36.696 32.7038C36.8656 32.9897 36.8213 33.3529 36.5864 33.5858L33.1722 37.0164C32.9373 37.2485 32.5744 37.2881 32.2951 37.1254L27.8892 34.4732C26.9808 34.9702 26.0307 35.371 25.0572 35.6776L23.825 40.6406C23.7441 40.9603 23.457 41.1855 23.1255 41.1855L18.294 41.1888ZM13.5149 32.9219C13.6375 32.9219 13.7627 32.9533 13.8748 33.0184C14.9296 33.6282 16.0337 34.0961 17.1535 34.4084C17.4014 34.4786 17.5919 34.6807 17.6571 34.9314L18.8579 39.7464L22.5644 39.7435L23.7625 34.9264C23.825 34.678 24.0156 34.4786 24.2636 34.4084C25.3991 34.0887 26.5005 33.6202 27.5421 33.0166C27.769 32.8828 28.0458 32.8873 28.2703 33.0199L32.551 35.6001L35.1742 32.9648L32.6033 28.6758C32.4674 28.4497 32.4674 28.1694 32.5954 27.9418C33.1879 26.9141 33.642 25.8165 33.9501 24.6725C34.0179 24.4212 34.2164 24.2258 34.4694 24.1631L39.3087 22.9456V19.2321L34.4694 18.0164C34.2164 17.9548 34.0179 17.7586 33.9501 17.5058C33.6446 16.3727 33.1879 15.2698 32.5954 14.2336C32.4674 14.0098 32.4701 13.7304 32.6033 13.5036L35.1689 9.21375L32.5483 6.5862L28.2677 9.16166C28.0458 9.29691 27.769 9.30316 27.5395 9.1676C26.4953 8.56436 25.3938 8.09668 24.2611 7.7761C24.013 7.70772 23.8225 7.50998 23.7597 7.2587L22.5592 2.43929H18.8527L17.644 7.28712C17.5816 7.53902 17.3857 7.74028 17.1352 7.80747C15.9997 8.1171 14.9008 8.5747 13.8672 9.16905C13.6428 9.30316 13.366 9.30017 13.1389 9.16166L8.86345 6.58796L6.24282 9.21938L8.80863 13.5036C8.94438 13.7304 8.94438 14.0098 8.814 14.2359C8.21093 15.2891 7.74111 16.3967 7.42519 17.5292C7.35471 17.7811 7.15635 17.972 6.90575 18.035L2.10574 19.2377V22.953L6.93972 24.1681C7.19295 24.2309 7.39126 24.4271 7.45912 24.679C7.76704 25.8147 8.22142 26.9164 8.81916 27.9539C8.94954 28.1812 8.947 28.4615 8.81116 28.6856L6.24544 32.9698L8.86861 35.6024L13.1441 33.0264C13.2591 32.9568 13.3868 32.9219 13.5149 32.9219Z" fill="url(#paint0_linear)"/>
<path fill-rule="evenodd" clip-rule="evenodd" d="M20.7112 26.6571C17.6518 26.6571 15.1619 24.1631 15.1619 21.0918C15.1619 18.0226 17.6518 15.5285 20.7112 15.5285C23.7676 15.5285 26.2551 18.0226 26.2551 21.0918C26.2551 24.1631 23.7676 26.6571 20.7112 26.6571ZM20.7112 16.9706C18.4429 16.9706 16.6001 18.82 16.6001 21.0918C16.6001 23.3636 18.4429 25.2147 20.7112 25.2147C22.9741 25.2147 24.8169 23.3636 24.8169 21.0918C24.8169 18.82 22.9741 16.9706 20.7112 16.9706ZM18.294 41.1888C17.9652 41.1888 17.6782 40.9627 17.5971 40.6436L16.3599 35.6809C15.3967 35.3825 14.4467 34.9767 13.5278 34.4756L9.127 37.1254C8.84518 37.2953 8.48247 37.2485 8.25001 37.0188L4.8307 33.5882C4.59833 33.3558 4.55399 32.9932 4.72363 32.7094L7.3652 28.302C6.87457 27.39 6.48035 26.4411 6.18812 25.4637L1.21285 24.2167C0.894521 24.137 0.66748 23.8463 0.66748 23.5187V18.6747C0.66748 18.3423 0.894521 18.0534 1.21285 17.9753L6.15935 16.7368C6.46212 15.7606 6.86666 14.8075 7.36258 13.8923L4.72109 9.47749C4.55146 9.19303 4.59592 8.82897 4.82807 8.59573L8.24223 5.17279C8.47718 4.93748 8.83993 4.88895 9.12193 5.06508L13.5227 7.71128C14.4284 7.22464 15.3759 6.82565 16.3494 6.5338L17.5919 1.54389C17.6728 1.22304 17.9599 0.997192 18.2889 0.997192H23.1204C23.4491 0.997192 23.7389 1.22304 23.8173 1.54389L25.0545 6.51044C26.0255 6.81351 26.9756 7.21787 27.8839 7.70772L32.2899 5.0565C32.5666 4.89458 32.9321 4.93748 33.1671 5.16747L36.5811 8.59067C36.816 8.82391 36.8604 9.18682 36.6907 9.47304L34.0492 13.8923C34.5347 14.798 34.9288 15.7476 35.2212 16.7184L40.2015 17.9702C40.5225 18.0484 40.747 18.339 40.747 18.6694V23.5095C40.747 23.839 40.5225 24.1302 40.2015 24.2075L35.2212 25.4586C34.9288 26.439 34.5347 27.388 34.0518 28.2878L36.696 32.7038C36.8656 32.9897 36.8213 33.3529 36.5864 33.5858L33.1722 37.0164C32.9373 37.2485 32.5744 37.2881 32.2951 37.1254L27.8892 34.4732C26.9808 34.9702 26.0307 35.371 25.0572 35.6776L23.825 40.6406C23.7441 40.9603 23.457 41.1855 23.1255 41.1855L18.294 41.1888ZM13.5149 32.9219C13.6375 32.9219 13.7627 32.9533 13.8748 33.0184C14.9296 33.6282 16.0337 34.0961 17.1535 34.4084C17.4014 34.4786 17.5919 34.6807 17.6571 34.9314L18.8579 39.7464L22.5644 39.7435L23.7625 34.9264C23.825 34.678 24.0156 34.4786 24.2636 34.4084C25.3991 34.0887 26.5005 33.6202 27.5421 33.0166C27.769 32.8828 28.0458 32.8873 28.2703 33.0199L32.551 35.6001L35.1742 32.9648L32.6033 28.6758C32.4674 28.4497 32.4674 28.1694 32.5954 27.9418C33.1879 26.9141 33.642 25.8165 33.9501 24.6725C34.0179 24.4212 34.2164 24.2258 34.4694 24.1631L39.3087 22.9456V19.2321L34.4694 18.0164C34.2164 17.9548 34.0179 17.7586 33.9501 17.5058C33.6446 16.3727 33.1879 15.2698 32.5954 14.2336C32.4674 14.0098 32.4701 13.7304 32.6033 13.5036L35.1689 9.21375L32.5483 6.5862L28.2677 9.16166C28.0458 9.29691 27.769 9.30316 27.5395 9.1676C26.4953 8.56436 25.3938 8.09668 24.2611 7.7761C24.013 7.70772 23.8225 7.50998 23.7597 7.2587L22.5592 2.43929H18.8527L17.644 7.28712C17.5816 7.53902 17.3857 7.74028 17.1352 7.80747C15.9997 8.1171 14.9008 8.5747 13.8672 9.16905C13.6428 9.30316 13.366 9.30017 13.1389 9.16166L8.86345 6.58796L6.24282 9.21938L8.80863 13.5036C8.94438 13.7304 8.94438 14.0098 8.814 14.2359C8.21093 15.2891 7.74111 16.3967 7.42519 17.5292C7.35471 17.7811 7.15635 17.972 6.90575 18.035L2.10574 19.2377V22.953L6.93972 24.1681C7.19295 24.2309 7.39126 24.4271 7.45912 24.679C7.76704 25.8147 8.22142 26.9164 8.81916 27.9539C8.94954 28.1812 8.947 28.4615 8.81116 28.6856L6.24544 32.9698L8.86861 35.6024L13.1441 33.0264C13.2591 32.9568 13.3868 32.9219 13.5149 32.9219Z" fill="#FF3B4A"/>
<defs>
<linearGradient id="paint0_linear" x1="21.1627" y1="-18.6419" x2="-19.0261" y2="20.5241" gradientUnits="userSpaceOnUse">
<stop stop-color="white"/>
<stop offset="1" stop-color="white"/>
</linearGradient>
</defs>
</svg>
