<svg width="42" height="34" viewBox="0 0 42 34" fill="none" xmlns="http://www.w3.org/2000/svg">
<path fill-rule="evenodd" clip-rule="evenodd" d="M41.0812 10.4461C41.0812 10.4142 41.0549 10.3994 41.0495 10.368C41.0417 10.2991 41.0549 10.2289 41.0259 10.1629L36.9066 0.466049C36.7934 0.201413 36.5303 0.0264893 36.2381 0.0264893H5.83955C5.5473 0.0264893 5.28422 0.201413 5.17088 0.466049L1.04892 10.1629C1.01996 10.2289 1.03312 10.2991 1.0226 10.368C1.01996 10.3994 0.993652 10.4142 0.993652 10.4461C0.993652 10.4604 1.00954 10.4719 1.00954 10.4882C1.01996 10.6463 1.06471 10.7972 1.17273 10.9221L20.4926 32.7548C20.5084 32.7741 20.5374 32.7661 20.5531 32.7856C20.6057 32.8318 20.648 32.8738 20.7111 32.9076C20.7243 32.9132 20.7268 32.936 20.7453 32.9416C20.84 32.9816 20.94 33.002 21.0349 33.002C21.1321 33.002 21.2322 32.9816 21.3271 32.9416C21.3453 32.936 21.3481 32.9132 21.3612 32.9046C21.4243 32.8738 21.4665 32.8318 21.5165 32.7856C21.5349 32.7661 21.564 32.7741 21.5798 32.7548L40.8996 10.9221C41.0075 10.7972 41.0549 10.6463 41.0654 10.4882C41.0654 10.4719 41.0812 10.4604 41.0812 10.4461ZM25.9649 1.46948L29.5182 9.72511H12.5567L16.1127 1.46948H25.9649ZM29.5077 11.1672L21.0349 30.4745L12.5671 11.1672H29.5077ZM10.9826 11.1672L18.5132 28.3383L3.32046 11.1672H10.9826ZM31.0923 11.1672H38.7517L23.5589 28.3353L31.0923 11.1672ZM39.265 9.72511H31.0948L27.5414 1.46948H35.7563L39.265 9.72511ZM6.31858 1.46948H14.5387L10.9826 9.72511H2.80975L6.31858 1.46948Z" fill="url(#paint0_linear)"/>
<path fill-rule="evenodd" clip-rule="evenodd" d="M41.0812 10.4461C41.0812 10.4142 41.0549 10.3994 41.0495 10.368C41.0417 10.2991 41.0549 10.2289 41.0259 10.1629L36.9066 0.466049C36.7934 0.201413 36.5303 0.0264893 36.2381 0.0264893H5.83955C5.5473 0.0264893 5.28422 0.201413 5.17088 0.466049L1.04892 10.1629C1.01996 10.2289 1.03312 10.2991 1.0226 10.368C1.01996 10.3994 0.993652 10.4142 0.993652 10.4461C0.993652 10.4604 1.00954 10.4719 1.00954 10.4882C1.01996 10.6463 1.06471 10.7972 1.17273 10.9221L20.4926 32.7548C20.5084 32.7741 20.5374 32.7661 20.5531 32.7856C20.6057 32.8318 20.648 32.8738 20.7111 32.9076C20.7243 32.9132 20.7268 32.936 20.7453 32.9416C20.84 32.9816 20.94 33.002 21.0349 33.002C21.1321 33.002 21.2322 32.9816 21.3271 32.9416C21.3453 32.936 21.3481 32.9132 21.3612 32.9046C21.4243 32.8738 21.4665 32.8318 21.5165 32.7856C21.5349 32.7661 21.564 32.7741 21.5798 32.7548L40.8996 10.9221C41.0075 10.7972 41.0549 10.6463 41.0654 10.4882C41.0654 10.4719 41.0812 10.4604 41.0812 10.4461ZM25.9649 1.46948L29.5182 9.72511H12.5567L16.1127 1.46948H25.9649ZM29.5077 11.1672L21.0349 30.4745L12.5671 11.1672H29.5077ZM10.9826 11.1672L18.5132 28.3383L3.32046 11.1672H10.9826ZM31.0923 11.1672H38.7517L23.5589 28.3353L31.0923 11.1672ZM39.265 9.72511H31.0948L27.5414 1.46948H35.7563L39.265 9.72511ZM6.31858 1.46948H14.5387L10.9826 9.72511H2.80975L6.31858 1.46948Z" fill="#FF3B4A"/>
<defs>
<linearGradient id="paint0_linear" x1="17.3931" y1="-13.4635" x2="-8.10654" y2="24.4246" gradientUnits="userSpaceOnUse">
<stop stop-color="white"/>
<stop offset="1" stop-color="white"/>
</linearGradient>
</defs>
</svg>
