<svg width="48" height="30" viewBox="0 0 48 30" fill="none" xmlns="http://www.w3.org/2000/svg">
<path d="M24 0.5625C21.8125 0.5625 19.7188 0.90625 17.7188 1.59375C15.7188 2.28125 13.7812 3.25 11.9062 4.5C9.96875 5.6875 8.03125 7.1875 6.09375 9C4.15625 10.75 2.125 12.75 0 15C1.8125 16.875 3.5625 18.6875 5.25 20.4375C7 22.1875 8.8125 23.7188 10.6875 25.0312C12.5625 26.3438 14.5625 27.4062 16.6875 28.2188C18.875 29.0312 21.3125 29.4375 24 29.4375C26.6875 29.4375 29.1875 28.9688 31.5 28.0312C33.8125 27.0312 35.9688 25.8125 37.9688 24.375C39.9688 22.9375 41.7812 21.4062 43.4062 19.7812C45.0938 18.0938 46.625 16.5625 48 15.1875C46.625 13.5 45.0938 11.8125 43.4062 10.125C41.7188 8.375 39.875 6.8125 37.875 5.4375C35.875 4 33.7188 2.84375 31.4062 1.96875C29.0938 1.03125 26.625 0.5625 24 0.5625ZM24 27.75C21.625 27.75 19.4688 27.4375 17.5312 26.8125C15.5938 26.125 13.75 25.1875 12 24C10.25 22.8125 8.59375 21.4688 7.03125 19.9688C5.46875 18.4062 3.875 16.75 2.25 15C4.1875 12.9375 6.03125 11.125 7.78125 9.5625C9.59375 8 11.375 6.65625 13.125 5.53125C14.875 4.46875 16.625 3.65625 18.375 3.09375C20.1875 2.53125 22.0625 2.25 24 2.25C26.3125 2.25 28.5 2.625 30.5625 3.375C32.625 4.125 34.5625 5.09375 36.375 6.28125C38.1875 7.53125 39.875 8.9375 41.4375 10.5C43 12 44.4688 13.5312 45.8438 15.0938C44.5312 16.4688 43.0938 17.9062 41.5312 19.4062C39.9688 20.9062 38.2812 22.2812 36.4688 23.5312C34.6562 24.7812 32.7188 25.8125 30.6562 26.625C28.5938 27.375 26.375 27.75 24 27.75ZM24 5.4375C22.6875 5.4375 21.4375 5.6875 20.25 6.1875C19.125 6.6875 18.125 7.375 17.25 8.25C16.375 9.125 15.6875 10.1562 15.1875 11.3438C14.6875 12.4688 14.4375 13.6875 14.4375 15C14.4375 16.3125 14.6875 17.5625 15.1875 18.75C15.6875 19.875 16.375 20.875 17.25 21.75C18.125 22.625 19.125 23.3125 20.25 23.8125C21.4375 24.3125 22.6875 24.5625 24 24.5625C25.3125 24.5625 26.5312 24.3125 27.6562 23.8125C28.8438 23.3125 29.875 22.625 30.75 21.75C31.625 20.875 32.3125 19.875 32.8125 18.75C33.3125 17.5625 33.5625 16.3125 33.5625 15C33.5625 13.6875 33.3125 12.4688 32.8125 11.3438C32.3125 10.1562 31.625 9.125 30.75 8.25C29.875 7.375 28.8438 6.6875 27.6562 6.1875C26.5312 5.6875 25.3125 5.4375 24 5.4375ZM24 22.9688C22.875 22.9688 21.8125 22.7812 20.8125 22.4062C19.875 21.9688 19.0625 21.375 18.375 20.625C17.625 19.9375 17.0312 19.125 16.5938 18.1875C16.2188 17.1875 16.0312 16.125 16.0312 15C16.0312 13.875 16.2188 12.8438 16.5938 11.9062C17.0312 10.9062 17.625 10.0625 18.375 9.375C19.0625 8.625 19.875 8.0625 20.8125 7.6875C21.8125 7.25 22.875 7.03125 24 7.03125C25.125 7.03125 26.1562 7.25 27.0938 7.6875C28.0938 8.0625 28.9375 8.625 29.625 9.375C30.375 10.0625 30.9375 10.9062 31.3125 11.9062C31.75 12.8438 31.9688 13.875 31.9688 15C31.9688 16.125 31.75 17.1875 31.3125 18.1875C30.9375 19.125 30.375 19.9375 29.625 20.625C28.9375 21.375 28.0938 21.9688 27.0938 22.4062C26.1562 22.7812 25.125 22.9688 24 22.9688ZM24 9.375C23.25 9.375 22.5312 9.53125 21.8438 9.84375C21.1562 10.1562 20.5625 10.5625 20.0625 11.0625C19.5625 11.5625 19.1562 12.1562 18.8438 12.8438C18.5312 13.5312 18.375 14.25 18.375 15C18.375 15.75 18.5312 16.4688 18.8438 17.1562C19.1562 17.8438 19.5625 18.4375 20.0625 18.9375C20.5625 19.4375 21.1562 19.8438 21.8438 20.1562C22.5312 20.4688 23.25 20.625 24 20.625C24.75 20.625 25.4688 20.4688 26.1562 20.1562C26.8438 19.8438 27.4375 19.4375 27.9375 18.9375C28.4375 18.4375 28.8438 17.8438 29.1562 17.1562C29.4688 16.4688 29.625 15.75 29.625 15C29.625 14.25 29.4688 13.5312 29.1562 12.8438C28.8438 12.1562 28.4375 11.5625 27.9375 11.0625C27.4375 10.5625 26.8438 10.1562 26.1562 9.84375C25.4688 9.53125 24.75 9.375 24 9.375ZM24 19.0312C23.4375 19.0312 22.9062 18.9375 22.4062 18.75C21.9688 18.5 21.5625 18.1875 21.1875 17.8125C20.8125 17.4375 20.5 17.0312 20.25 16.5938C20.0625 16.0938 19.9688 15.5625 19.9688 15C19.9688 14.4375 20.0625 13.9375 20.25 13.5C20.5 13 20.8125 12.5625 21.1875 12.1875C21.5625 11.8125 21.9688 11.5312 22.4062 11.3438C22.9062 11.0938 23.4375 10.9688 24 10.9688C24.5625 10.9688 25.0625 11.0938 25.5 11.3438C26 11.5312 26.4375 11.8125 26.8125 12.1875C27.1875 12.5625 27.4688 13 27.6562 13.5C27.9062 13.9375 28.0312 14.4375 28.0312 15C28.0312 15.5625 27.9062 16.0938 27.6562 16.5938C27.4688 17.0312 27.1875 17.4375 26.8125 17.8125C26.4375 18.1875 26 18.5 25.5 18.75C25.0625 18.9375 24.5625 19.0312 24 19.0312Z" fill="white"/>
</svg>
